<?xml version="1.0" standalone="no"?>
<!DOCTYPE svg PUBLIC "-//W3C//DTD SVG 1.1//EN" "http://www.w3.org/Graphics/SVG/1.1/DTD/svg11.dtd" >
<svg xmlns="http://www.w3.org/2000/svg">
<metadata>Generated by IcoMoon</metadata>
<defs>
<font id="icomoon" horiz-adv-x="1024">
<font-face units-per-em="1024" ascent="896" descent="-128" />
<missing-glyph horiz-adv-x="1024" />
<glyph unicode="&#x20;" horiz-adv-x="0" d="" />
<glyph unicode="&#xe600;" glyph-name="eclips-horizonal-copy" d="M254 383q0-22 15.5-37.5t37.5-15.5 37.5 15.5 15.5 37.5-15.5 37.5-37.5 15.5-37.5-15.5-15.5-37.5v0zM471 383v0q0-22 15.5-37.5t37.5-15.5 37.5 15.5 15.5 37.5v0q0 22-15.5 37.5t-37.5 15.5-37.5-15.5-15.5-37.5zM688 383q0-22 15.5-37.5t37.5-15.5 38 15.5 16 37.5-16 37.5-38 15.5-37.5-15.5-15.5-37.5z" />
<glyph unicode="&#xe601;" glyph-name="guanbi" d="M552 299l231 232q8 8 8 19.5t-8 19.5-19 8-19-8l-232-232-232 232q-8 8-19 8t-19-8-8-19.5 8-19.5l231-232-231-232q-8-8-8-19t8-19 19-8 19 8l232 231 232-231q8-8 19-8t19 8 8 19-8 19z" />
<glyph unicode="&#xe602;" glyph-name="user" d="M681 317q50 55 81.5 136t31.5 161q0 129-78.5 205.5t-203.5 76.5-203.5-76.5-78.5-205.5q0-83 31-162.5t82-134.5q-123-27-194.5-89t-71.5-151q0-205 435-205t435 205q0 89-71.5 151t-194.5 89zM333 614q0 88 47 134t132 46 132-46 47-134q0-67-26.5-133t-68-107-84.5-41-84.5 41-68 107-26.5 133zM512-26q-147 0-240 28.5t-93 74.5q0 66 92.5 109.5t240.5 43.5 240.5-43.5 92.5-109.5q0-46-93-74.5t-240-28.5z" />
<glyph unicode="&#xe604;" glyph-name="glass" d="M976 5l-241 240q36 46 57 106.5t21 122.5q0 107-52 197t-142.5 142.5-197 52.5-196.5-52.5-142.5-142.5-52.5-196.5 52.5-197 142.5-142.5 197-52q62 0 122.5 21t106.5 57l240-241q19-18 43-18t42 18 18 42-18 43zM151 474q0 113 79 192t192 79 192-79 79-192-79-192-192-79-192 79-79 192z" />
<glyph unicode="&#xe60c;" glyph-name="shujia" d="M832 896h-640q-25 0-44.5-18t-19.5-46v-896q0-29 17.5-46.5t46.5-17.5h640q25 0 44.5 18t19.5 46v896q0 29-17.5 46.5t-46.5 17.5zM448 512l-96 96-96-96v288h192v-288zM800-32h-96v832h96v-832z" />
<glyph unicode="&#xe60e;" glyph-name="tongzhi" d="M557 781l-237-141v-448l237-141q33-19 58-6t25 51v640q0 39-25 53.5t-58-8.5zM64 544v-256q0-38 29-67t67-29h96v448h-96q-38 0-67-29t-29-67zM928 448h-128q-14 0-23-9t-9-23 9-23 23-9h128q14 0 23 9t9 23-9 23-23 9zM909 122l-109 64q-27 13-45-13-13-27 13-45l109-64q27-14 45 13 5 9 0.5 24.5t-13.5 20.5zM794 646l108 64q10 5 14 18t-1 27q-5 10-17 14t-21-1l-109-64q-10-5-13.5-17.5t0.5-27.5q5-9 17-13t22 0z" />
<glyph unicode="&#xe60f;" glyph-name="icon_dashangbang" d="M512 834q-122 0-225.5-60.5t-164-164-60.5-225.5 60.5-225.5 164-164 225.5-60.5 225.5 60.5 164 164 60.5 225.5-60.5 225.5-164 164-225.5 60.5zM512 24q-148 0-254 106t-106 254 106 254 254 106 254-106 106-254-106-254-254-106zM692 429h-117l103 103q14 14 14 32t-13.5 31.5-31.5 13.5-31-13l-104-104-104 104q-13 13-31 13t-31.5-13.5-13.5-31.5 14-32l103-103h-117q-20 0-32.5-12.5t-12.5-32.5 12.5-32.5 32.5-12.5h135v-45h-90q-20 0-32.5-12.5t-12.5-32.5 12.5-32.5 32.5-12.5h90v-90q0-20 12.5-32.5t32.5-12.5 32.5 12.5 12.5 32.5v90h90q20 0 32.5 12.5t12.5 32.5-12.5 32.5-32.5 12.5h-90v45h135q20 0 32.5 12.5t12.5 32.5-12.5 32.5-32.5 12.5z" />
<glyph unicode="&#xe610;" glyph-name="icon_fengyunbang" d="M512 896q-138 0-256-69t-187-187-69-256 69-256 187-187 256-69 256 69 187 187 69 256-69 256-187 187-256 69zM512 794q111 0 205.5-55t149.5-149.5 55-205.5q0-16-28-40t-77.5-43-99.5-19q-45 0-76.5 26.5t-87.5 106.5q-63 98-115 136t-131 38q-87 0-169-41 47 109 148 177.5t226 68.5zM512-26q-111 0-205.5 55t-149.5 149.5-55 205.5q0 16 28 40t77.5 43 99.5 19q45 0 76.5-26.5t87.5-106.5q68-100 118-137t128-37q87 0 169 41-47-109-148-177.5t-226-68.5z" />
<glyph unicode="&#xe611;" glyph-name="icon_gengxinbang" d="M512 896q-138 0-256-69t-187-187-69-256 69-256 187-187 256-69 256 69 187 187 69 256-69 256-187 187-256 69zM512-26q-111 0-205.5 55t-149.5 149.5-55 205.5 55 205.5 149.5 149.5 205.5 55 205.5-55 149.5-149.5 55-205.5-55-205.5-149.5-149.5-205.5-55zM666 589h-308q-23 0-37-14t-14-37 14-37.5 37-14.5h205q-10-20-20-30-82-156-82-328 0-23 14-37t37-14 37 14 14 37q0 149 72 276 15 31 46 72 6 6 12.5 15t7.5 11q24 23 11.5 55t-46.5 32z" />
<glyph unicode="&#xe612;" glyph-name="icon_caidan" d="M358 640h512q21 0 36.5 14.5t15.5 36.5q0 23-14.5 37t-37.5 14h-512q-20 0-35.5-14.5t-15.5-36.5q0-23 14-37t37-14zM205 128h-51q-23 0-37.5-14t-14.5-37 14.5-37 37.5-14h51q23 0 37 14t14 37-14 37-37 14zM205 435h-51q-23 0-37.5-14t-14.5-37 14.5-37 37.5-14h51q23 0 37 14t14 37-14 37-37 14zM870 128h-512q-20 0-35.5-14.5t-15.5-36.5q0-23 14-37t37-14h512q21 0 36.5 14.5t15.5 36.5q0 23-14.5 37t-37.5 14zM205 742h-51q-23 0-37.5-14t-14.5-37 14.5-37 37.5-14h51q23 0 37 14t14 37-14 37-37 14zM870 435h-512q-20 0-35.5-14.5t-15.5-36.5q0-23 14-37t37-14h512q21 0 36.5 14.5t15.5 36.5q0 23-14.5 37t-37.5 14z" />
<glyph unicode="&#xe613;" glyph-name="icon_huiyuanzhongxin" d="M794 845v-77q31 0 46.5-21t4.5-51l-210-583-271 583q-12 31 1.5 51.5t44.5 20.5h51v77h-461v-77h26q31 0 63.5-21t43.5-51l328-773h179l282 773q11 31 41 51.5t61 20.5v77h-230z" />
<glyph unicode="&#xe614;" glyph-name="icon_dianjibang" horiz-adv-x="1025" d="M959 164l-261 261 200 118q27 15 23.5 49.5t-33.5 42.5l-820 256q-30 11-52-9.5t-14-52.5l256-819q12-31 44-35.5t48 25.5l118 200 261-261q15-16 35.5-16t35.5 16l154 153q19 15 20 36t-15 36zM770 46l-272 271q-19 20-42.5 16.5t-39.5-26.5l-97-159-194 615 614-195-159-97q-23-11-26-37t16-45l271-271z" />
<glyph unicode="&#xe615;" glyph-name="icon_rexiaobang" d="M532 891q-21 11-42 0.5t-29-31.5q-15-67-48.5-113.5t-105.5-106.5q-25-26-30-26-97-84-136-154.5t-39-177.5q0-127 70.5-230t185.5-149q35-16 58 12t4 59q-10 31-10 52 0 30 9 46t37 35l20 16q5 2 13 7.5t13 7.5q51 43 77 87 35-98 35-205 0-28-15-51-11-21-4.5-41t26.5-30 39 0q116 46 186 149t70 229q3 131-41.5 253t-133 218-209.5 144zM717 51q-4 106-36 196t-87 127q-23 15-48 5.5t-29-36.5q-11-45-28-72t-49-51q-10-10-20-15-16-11-21-16-43-31-63-62t-24-76q-49 42-75.5 101.5t-26.5 129.5q0 82 29.5 135t108.5 120q26 21 31 26 66 58 104 105t60 105q128-68 202-203.5t74-287.5q0-68-27.5-127.5t-74.5-103.5z" />
<glyph unicode="&#xe616;" glyph-name="icon_quanbubangdan" d="M973 794h-154v51q0 19-16 35t-35 16h-512q-20 0-35.5-14.5t-15.5-36.5v-51h-154q-23 0-37-14.5t-14-37.5q0-246 174-378 83-58 138-72 54-84 149-108v-210h-154q-23 0-37-14t-14-37 14-37 37-14h410q23 0 37 14t14 37-14 37-37 14h-154v210q86 22 149 108 68 17 138 72 174 132 174 378 0 23-14 37.5t-37 14.5zM236 445q-111 79-134 246h103q11-114 20-164 5-15 13-45.5t13-46.5q-3 3-8 5.5t-7 4.5zM512 282q-68 0-114.5 68.5t-69.5 197.5q-21 109-21 246h410q0-137-21-246-23-129-69.5-197.5t-114.5-68.5zM788 445q-2-2-7-4.5t-8-5.5q10 31 21 92 20 113 20 164h102q-15-165-128-246z" />
<glyph unicode="&#xe617;" glyph-name="icon_shoucangbang" d="M957 527l-276 41-123 251q-15 27-46 27t-46-27l-123-251-276-41q-31-3-42.5-35t11.5-52l200-194-47-277q-3-31 22-49.5t55-6.5l246 128 246-128q27-16 53.5 3t23.5 53l-47 277 200 194q23 20 11.5 52t-42.5 35zM696 297q-15-15-15-46l36-200-179 92q-23 16-46 0l-185-92 36 200q4 11-1.5 24t-13.5 22l-144 143 200 31q15 0 41 26l87 179 87-179q9-26 41-26l200-31z" />
<glyph unicode="&#xe618;" glyph-name="icon_toupiaohudong" d="M73 457h878q33 0 53 20t20 53-20 53-53 20h-702l168 169q22 22 22 51t-22 51-51.5 22-50.5-22l-293-293q-16-15-19.5-37t3.5-41 25-32.5 42-13.5zM951 311h-878q-33 0-53-20t-20-53 20-53 53-20h702l-168-169q-22-22-22-51t22-51 51.5-22 50.5 22l293 293q16 15 19.5 37t-3.5 41-25 32.5-42 13.5z" />
<glyph unicode="&#xe619;" glyph-name="tuwen" d="M0 192h256v-128h-256v128zM0 704h256v-128h-256v128zM0 448h256v-128h-256v128zM384 704h640v-128h-640v128zM384 448h640v-128h-640v128zM384 192h640v-128h-640v128z" />
<glyph unicode="&#xe61a;" glyph-name="label" d="M509 796q-8 8-19 8h-343q-11 0-18.5-8t-8.5-19l-1-344q0-12 8-19l451-451q7-8 18-8t19 8l345 345q8 8 8 19t-8 18zM596 19l-424 424 1 308h307l424-424-308-308zM320 534q0-29 20-49t49-20 49 20 20 49-20 49-49 20-49-20-20-49z" />
<glyph unicode="&#xe61b;" glyph-name="icon_wanbenbang" d="M870 691h-153v154q0 27-22.5 42t-49.5 4l-512-205q-15-4-23-17t-8-29v-717q0-22 15.5-36.5t36.5-14.5h716q23 0 37.5 14t14.5 37v717q0 23-14.5 37t-37.5 14zM205 604l409 164v-604l-409-164v604zM819-26h-399l266 108q31 15 31 46v461h102v-615z" />
<glyph unicode="&#xe61c;" glyph-name="icon_tuijianpiaoshuiying" horiz-adv-x="1492" d="M1448 516q18 0 31 12.5t13 31.5v234q0 42-30 72t-72 30h-1288q-42 0-72-30t-30-72v-234q0-19 13-31.5t31-12.5q54 0 93-39t39-93-39-93-93-39q-18 0-31-12.5t-13-31.5v-234q0-42 30-72t72-30h1288q42 0 72 30t30 72v234q0 19-13 31.5t-31 12.5q-54 0-92.5 39t-38.5 93 38.5 93 92.5 39zM1404 169v-195q0-6-4-10t-10-4h-1288q-6 0-10 4t-4 10v195q76 15 125.5 75.5t49.5 139.5-49.5 139.5-125.5 75.5v195q0 6 4 10t10 4h1288q6 0 10-4t4-10v-195q-76-15-125.5-75.5t-49.5-139.5 49.5-139.5 125.5-75.5zM1009 516h-102v161q0 18-13 30.5t-31 12.5h-102q-28 0-40-24l-90-180h-60q-19 0-31.5-13t-12.5-31v-322q0-18 12.5-31t31.5-13h351q14 0 26 9t16 23l88 322q5 21-8 38.5t-35 17.5zM888 194h-274v234h44q28 0 40 24l90 181h31v-161q0-18 13-31t31-13h89zM453.5 516q-18.5 0-31-13t-12.5-31v-322q0-18 12.5-31t31-13 31 13 12.5 31v322q0 18-12.5 31t-31 13z" />
<glyph unicode="&#xe61d;" glyph-name="chenggong" d="M512 896q-138 0-256-69t-187-187-69-256 69-256 187-187 256-69 256 69 187 187 69 256-69 256-187 187-256 69zM512-64q-187 0-317.5 130.5t-130.5 317.5 130.5 317.5 317.5 130.5 317.5-130.5 130.5-317.5-130.5-317.5-317.5-130.5zM742 550l-307-307-153 154q-15 14-31.5 14t-26.5-14q-11-16-12-31t12-27l179-179q15-14 31.5-14t26.5 14l339 339q14 15 14 31.5t-14 26.5q-9 10-26.5 8.5t-31.5-15.5z" />
<glyph unicode="&#xe61e;" glyph-name="cuowu" d="M512 896q-138 0-256-69t-187-187-69-256 69-256 187-187 256-69 256 69 187 187 69 256-69 256-187 187-256 69zM512-64q-187 0-317.5 130.5t-130.5 317.5 130.5 317.5 317.5 130.5 317.5-130.5 130.5-317.5-130.5-317.5-317.5-130.5zM723 595q-14 15-31 15t-26-15l-154-153-154 153q-9 10-26 10t-31.5-9.5-14.5-29 15-28.5l153-154-153-154q-15-14-15-31t15-26q16-11 31-12t26 12l154 153 154-153q14-15 31-15t26 15q11 16 12 31t-12 26l-153 154 153 154q10 9 10 26t-10 31z" />
<glyph unicode="&#xe61f;" glyph-name="guanbi1" d="M572 384l179 179q13 13 13 30t-13 30-30 13-30-13l-179-179-179 179q-13 13-30 13t-30-13-13-30 13-30l179-179-179-179q-13-13-13-30t13-30 30-13 30 13l179 179 179-179q13-13 30-13t30 13 13 30-13 30z" />
<glyph unicode="&#xe620;" glyph-name="icon_yuepiaoshuiying" horiz-adv-x="1492" d="M980 720h-468q-18 0-31-12.5t-13-30.5v-586q0-18 13-30.5t31-12.5 31 12.5 13 30.5v542h380v-542q0-18 13-30.5t31-12.5 31 12.5 13 30.5v586q0 18-13 30.5t-31 12.5zM863 516h-234q-18 0-31-13t-13-31 13-31 31-13h234q18 0 31 13t13 31-13 31-31 13zM863 311h-234q-18 0-31-13t-13-31 13-31 31-13h234q18 0 31 13t13 31-13 31-31 13zM1448 516q18 0 31 12.5t13 31.5v234q0 42-30 72t-72 30h-1288q-42 0-72-30t-30-72v-234q0-19 13-31.5t31-12.5q54 0 93-39t39-93-39-93-93-39q-18 0-31-12.5t-13-31.5v-234q0-42 30-72t72-30h1288q42 0 72 30t30 72v234q0 19-13 31.5t-31 12.5q-54 0-92.5 39t-38.5 93 38.5 93 92.5 39zM1404 169v-195q0-6-4-10t-10-4h-1288q-6 0-10 4t-4 10v195q76 15 125.5 75.5t49.5 139.5-49.5 139.5-125.5 75.5v195q0 6 4 10t10 4h1288q6 0 10-4t4-10v-195q-76-15-125.5-75.5t-49.5-139.5 49.5-139.5 125.5-75.5z" />
<glyph unicode="&#xe621;" glyph-name="youjiantou" d="M717 410l-299 307q-13 13-30 13t-30-13q-12-12-13.5-30t5.5-30l273-273-273-273q-7-13-7-30t7-30q13-13 30-13t30 13l298 299q19 12 20.5 33t-11.5 27z" />
<glyph unicode="&#xe622;" glyph-name="shangjiantou" d="M845 290l-299 299q-13 13-30 13t-30-13l-307-299q-13-13-13-30t13-30q12-12 30-13.5t30 5.5l273 273 273-273q13-7 30-7t30 7q13 13 13 34t-13 34z" />
<glyph unicode="&#xe623;" glyph-name="xiajiantou" d="M845 546q-13 7-30 7t-30-7l-273-273-273 273q-13 7-30 7t-30-7q-13-13-13-30t13-30l299-298q13-13 30-13t30 13l298 298q19 7 20.5 27.5t-11.5 32.5z" />
<glyph unicode="&#xe624;" glyph-name="wenhao" d="M464 142q0 20 14 34t34 14 34-14 14-34-14-34-34-14-34 14-14 34v0zM512-65q-91 0-174.5 36t-143.5 96-96 143.5-36 174.5 36 174.5 96 143.5 143.5 96 174.5 36 174.5-36 143.5-96 96-143.5 36-174.5-36-174.5-96-143.5-143.5-96-174.5-36v0zM512 770q-104 0-193-51.5t-140.5-140.5-51.5-193 51.5-193 140.5-140.5 193-51.5 193 51.5 140.5 140.5 51.5 193-51.5 193-140.5 140.5-193 51.5v0zM512 223q-13 0-22.5 9.5t-9.5 22.5v54q0 25 13 50t25.5 39.5 36.5 38.5q18 18 26.5 27.5t17.5 23.5 9 23q0 41-28 69.5t-68 28.5q-41 0-68.5-27.5t-27.5-67.5q0-14-9.5-23t-23-9-23 9-9.5 23q0 65 47.5 112t113.5 47 113.5-47.5 47.5-114.5q0-22-12.5-45.5t-24-37-35.5-36.5q-19-19-28.5-29.5t-19-26-9.5-27.5v-54q0-13-9.5-22.5t-22.5-9.5v0z" />
<glyph unicode="&#xe625;" glyph-name="icon_zhoutuijianbiao" d="M922 538h-246l15 97q16 85-37.5 147.5t-141.5 62.5h-51q-16 0-29-10.5t-17-25.5l-87-256q-16-15-21-15h-256q-23 0-37-14.5t-14-37.5v-512q0-23 14-37t37-14h768q61 0 108.5 43.5t55.5 105.5l36 358q4 42-25.5 75t-71.5 33zM205 26h-103v409h103v-409zM881 82q-4-24-21.5-40t-40.5-16h-512v409q39 0 72.5 24t45.5 58l72 225h15q39 0 61.5-27t15.5-65l-26-153q-4-23 12-42.5t39-19.5h302z" />
<glyph unicode="&#xe626;" glyph-name="jiangxu" d="M768 299q-19 12-42.5 12t-42.5-12l-111-120v546q0 26-17 43t-43 17-43-17-17-43v-546l-111 120q-19 12-42.5 12t-42.5-12q-18-16-16-40t16-46l213-213q20-19 42-19t35 19l222 213q13 20 13 43t-13 43z" />
<glyph unicode="&#xe627;" glyph-name="shengxu" d="M768 555l-213 213q-20 19-42 19t-35-19l-222-213q-13-20-13-43t13-43q15-17 39.5-15.5t45.5 15.5l120 120v-546q0-26 17-43t42.5-17 42.5 17 17 43v546l103-120q19-12 42.5-12t42.5 12q18 16 16 40t-16 46z" />
<glyph unicode="&#xe628;" glyph-name="zuojiantou" d="M307 358l299-307q13-13 30-13t30 13q12 12 13.5 30t-5.5 30l-273 273 273 273q7 13 7 30t-7 30q-13 13-30 13t-30-13l-298-299q-19-12-20.5-33t11.5-27z" />
<glyph unicode="&#xe629;" glyph-name="icon_zhangwuzhongxin" d="M922 896h-820q-23 0-37-14t-14-37v-922q0-23 14-37t37-14h564q20 0 35 15l256 256q16 16 16 36v666q0 23-14 37t-37 14zM614-26h-460v820h716v-564h-204q-23 0-37.5-14t-14.5-37v-205zM799 128l-82-82v82h82zM717 333q0 23-14 37t-37 14h-103v51h154q23 0 37 14t14 37-14 37.5-37 14.5h-133l92 92q15 15 15 35.5t-15.5 36-35.5 15.5-36-16l-92-92-92 92q-16 16-36 16t-35.5-15.5-15.5-36 15-35.5l92-92h-133q-23 0-37-14.5t-14-37.5 14-37 37-14h154v-51h-103q-23 0-37-14t-14-37 14-37 37-14h103v-103q0-23 14-37t37-14 37 14 14 37v103h103q23 0 37 14t14 37z" />
<glyph unicode="&#xe62a;" glyph-name="icon_zuojiazhuanqu" d="M930 538q-39 35-92.5 121.5t-90.5 170.5q-7 34-43 34h-384q-15 0-27.5-7.5t-15.5-21.5q-35-84-88.5-170.5t-94.5-126.5q-14-11-15-30t11-33q57-70 124-182 59-93 130-245 29-58 38-82 8-21 15-28 7-34 43-34h144q15 0 27.5 7.5t15.5 21.5q0 7 15 29 9 24 38 81 30 69 130 245 89 139 124 182 12 18 11 37.5t-15 30.5zM728 341q-87-149-134-255-5-12-17-36t-17-36v384q21 11 34.5 34t13.5 48q0 40-28 68t-68 28-68-28-28-68q0-25 13.5-48t34.5-34v-379q-10 24-34 72-86 173-134 255-62 98-106 153 43 54 88 127t76 142h321q34-74 77.5-147t85.5-122q-52-59-110-158z" />
<glyph unicode="&#xe62b;" glyph-name="icon_xinshubang" d="M256 77h614q23 0 37.5 14t14.5 37v717q0 23-14.5 37t-37.5 14h-614q-65 0-109.5-44t-44.5-110v-716q0-66 44.5-110t109.5-44h614q23 0 37.5 14t14.5 37-14.5 37-37.5 14h-614q-23 0-37 14.5t-14 37.5 14 37 37 14zM256 794h563v-615h-563q-20 0-51-10v573q0 23 14 37.5t37 14.5z" />
<glyph unicode="&#xe62c;" glyph-name="icon_wodeshujia" d="M128 538h-26q-23 0-37-14.5t-14-37.5 14-37 37-14h717q85 0 145 60.5t60 144.5-60 144.5-145 60.5h-717q-23 0-37-14t-14-37 14-37.5 37-14.5h26q0-2 2.5-4.5t2.5-5.5q21-34 21-92t-21-92q0-3-2.5-5.5t-2.5-4.5zM819 742q42 0 72.5-30t30.5-72-30.5-72-72.5-30h-578q15 46 15 102t-15 102h578zM896 230h26q23 0 37 14.5t14 37.5-14 37-37 14h-717q-85 0-145-60.5t-60-144.5 60-144.5 145-60.5h717q23 0 37 14t14 37-14 37.5-37 14.5h-26q0 2-2.5 4.5t-2.5 5.5q-21 34-21 92t21 92q0 3 2.5 5.5t2.5 4.5zM205 26q-42 0-72.5 30t-30.5 72 30.5 72 72.5 30h578q-15-46-15-102t15-102h-578z" />
<glyph unicode="&#xe62d;" glyph-name="kehuankongjiancopy" horiz-adv-x="1228" d="M691 717q-118 0-218.5-34.5t-158.5-93.5-58-128q0-96 90-163.5t217-67.5q84 0 152.5 36.5t101.5 97.5q-8-58-53-106.5t-112.5-76-139.5-27.5q-111 0-205.5 41t-149.5 112-55 154q0 73 47 141t125.5 118.5 188 81 228.5 30.5q281 0 502-79-88 66-227 104.5t-300 38.5q-136 0-259.5-36.5t-212.5-98.5-141.5-147-52.5-179q0-104 69-192.5t186.5-140 256.5-51.5q125 0 231 41.5t168 112 62 153.5q0 96-82.5 163.5t-199.5 67.5q111 0 205.5-34.5t149.5-93.5 55-128q0-79-44.5-152t-119.5-126.5-180-86-219-32.5q-281 0-502 79 88-66 227-104.5t300-38.5q136 0 259.5 36.5t212.5 98.5 141.5 147 52.5 179q0 104-72 192.5t-196 140-270 51.5v0z" />
<glyph unicode="&#xe62e;" glyph-name="xianxiaqiyuancopy" d="M499-36q-18 68 17 129t103 80v213.5t2.5 5 6.5 6.5 12.5 5 20.5 2q0 43-64 43-16 24-2.5 44t45.5 20q18 0 32-4.5t22-10.5 13-12.5 6-10.5l2-5q3 2 8 5.5t17.5 14 22.5 22 18 29.5 8 36q-21-16-44.5-11.5t-39.5 16.5-37.5 25-38.5 13q-14 0-27.5-5.5t-19.5-10.5l-6-6q-3 0-6.5 1t-9 6-5.5 15v202q0 22 21 32v0q0 2-0.5 5t-4 10.5-9.5 13-19 10-31 4.5-31-4.5-19-10.5-9.5-12.5-4.5-10.5v-5q21-10 21-32v-202q0-10-5-15t-11-6l-5-1q-22 22-53 22-17 0-39-13t-37.5-25-39.5-16.5-44 11.5q0-18 7.5-35.5t18.5-30 22-22 18-14.5l8-5q1 2 2 5t6 10.5 12.5 13 22 10 32.5 4.5q32 0 45.5-20t-2.5-44q-64 0-64-43 11 0 20-2t13-5 6.5-6.5 2.5-5.5v-514h156q-45 32-62 92zM469 533.5q0 17.5 12.5 30t30 12.5 30.5-12.5 13-30-13-30-30.5-12.5-30 12.5-12.5 30zM968 356q-31 114-117 190 4-13 6-21 23-84 0.5-166t-82.5-143-144-84q-51-14-77.5-59.5t-11.5-95.5q14-52 59.5-78t95.5-12q101 26 173 98.5t99 171.5-1 199zM252 388q-58 34-76 98t16 120l19 25q-91-24-139-104-46-80-22.5-169.5t103.5-135.5q36-19 73.5-9.5t57.5 43.5q20 35 10.5 74t-42.5 58z" />
<glyph unicode="&#xe62f;" glyph-name="danmei" horiz-adv-x="1069" d="M78 885q-43-27-65-122.5t-8-199.5q15-116 73.5-196.5t154.5-111.5q-56-49-86-117-55-110-47-233v-9q0-7 5.5-12.5t12.5-7.5q7 0 11-2 103-12 195 53 130 92 175 321 28 140-8.5 268.5t-126.5 230.5q-73 85-157 125.5t-129 12.5zM1060 563q14 104-7 200t-64 122q-46 28-130-12t-158-123q-90-103-126.5-231t-8.5-268q45-230 175-322 92-65 195-53 3 0 7 1l4 1q18 4 18 20v9q8 121-46 233-35 68-87 117 96 30 153.5 109.5t74.5 196.5z" />
<glyph unicode="&#xe630;" glyph-name="xiandaiyanqingcopy" horiz-adv-x="1068" d="M730 402l-147-140q-20-19-47.5-19t-47.5 19l-147 140q-153-59-247-194t-94-303q0-13 10-23t23.5-10 23.5 10 10 23q17 128 147 214.5t320 86.5 320.5-86.5 147.5-214.5q0-13 10-23t23-10 23.5 10 10.5 23q0 168-94 302.5t-245 194.5zM675 673h-281l140-342zM723 676l-146-357 356 383zM136 702l356-383-147 357zM683 718l-66 178h-165l-67-178h298zM405 896h-127l-147-147 207-29zM937 749l-147 147h-127l67-176z" />
<glyph unicode="&#xe631;" glyph-name="langmanqingchuncopy" d="M838 429q-69 8-179 32 29 5 85 15t73 13q57 8 94.5 43.5t37.5 88.5q0 54-39 93t-93 39h-11v11q0 54-38.5 93t-93.5 39q-52 0-88-38t-44-94q-4-32-30-169-24 123-30 169-6 56-42.5 94t-89.5 38q-55 0-93.5-39t-38.5-93v-11h-11q-54 0-93-39t-39-93q0-53 37.5-88.5t94.5-43.5q67-10 158-28-35-7-98.5-18t-80.5-14q-57-7-95-43.5t-38-88.5q0-55 39-94t94-39h10v-10q0-55 39-94t94-39q52 0 87.5 38t44.5 95q1 15 19 108v-104q0-138 76-212t212-74q13 0 22.5 9.5t9.5 22.5-9.5 22.5-22.5 9.5q-224 0-224 224v105q5-25 11-62.5t8-46.5q9-57 44.5-95t87.5-38q55 0 94 39t39 94v10h10q55 0 94 39t39 94q0 52-38 87.5t-95 42.5z" />
<glyph unicode="&#xe632;" glyph-name="gudaiyanqingcopy" horiz-adv-x="1117" d="M1022-67q25 29 25 67 0 30-16 54.5t-44 36.5q-79-129-214-200 37-19 74-19 41 0 70 16 37-16 70-16 34 0 64 12.5t47 34.5q-41 3-76 14zM209 431q12 0 35 4 21 7 34 25t13 40q0 30-20 50t-50 20q-9 0-16-7t-7-16q0-11-6.5-17t-17-6-17 6-6.5 17q0 31 21 49 18 21 49 21 49 0 82.5-34t33.5-83q0-42-30-76 45-17 89-17 71 0 135 40 26-16 62-16 31 0 59 14 23 65 23 125 0 49-14 98-30 19-68 19-18 0-27-3-29 34-74 53t-96 19q-52 0-95.5-18.5t-72.5-50.5h-19q-57 0-98-38t-41-90.5 41-90 98-37.5zM212 149q3 19 14 37-70 18-127.5 58t-96.5 98q11-147 98-263 41 63 112 70zM1024 384q0 133-62.5 246.5t-170.5 183-239 80.5q78-54 123.5-139t45.5-185q0-129-74.5-231.5t-195.5-143.5q-32 26-79 26-14 0-21-2h-4q-4-1-9.5-2.5t-9.5-2.5q-2 0-5-2l-13-7q-2 0-3-1.5t-2-1.5q-2-1-7-4.5t-7-4.5l-5-4q0-1-2.5-2.5t-4-3.5-2.5-4l-5-4q-16-21-16-47v-23h-23q-33 0-61-17.5t-42-45.5q0-2-3.5-8.5t-3.5-10.5q0-1-1-3.5t-1-3.5q0-4-2-7-3-7-3-21 0-49 34-82.5t83-33.5q39 0 72 26-26 33-26 67 0 85 186 93-60-5-99.5-31t-39.5-62q0-27 26.5-50t68.5-34q61-9 91-9 140 0 257.5 68.5t186 186 68.5 257.5z" />
<glyph unicode="&#xe633;" glyph-name="nvshengtongrencopy" d="M85 427q0 107 26 192.5t77.5 147.5 133.5 95.5 190 33.5 190-33.5 133.5-95.5 77.5-147.5 26-192.5v-555h-854v555zM173 472q-2-26-2-52v0q0-86 31-171.5t80-149 110.5-103 119.5-39.5 119.5 39.5 110.5 103 80 149 31 171.5q0 25-2 50-85 6-156.5 22.5t-118 37.5-83 45.5-56.5 46-32.5 41.5-16.5 29.5-4 11.5q0-4-2-12t-14.5-33.5-32.5-51-62.5-63-99.5-72.5zM363 320v0q-18 0-30.5 12.5t-12.5 30 12.5 30 30.5 12.5v0q17 0 29.5-12.5t12.5-30-12.5-30-29.5-12.5zM661 320v0q-17 0-29.5 12.5t-12.5 30 12.5 30 29.5 12.5v0q18 0 30.5-12.5t12.5-30-12.5-30-30.5-12.5zM388 119q-4 6-4 13 0 9 6 15.5t15 6.5q11 0 17-9 7-8 22-18 30-20 67-20h1q37 0 68 20 15 9 22 18 6 9 17 9 9 0 15-6.5t6-14.5-5-14q-11-14-32-28-17-11-43-19t-47-8h-2q-21 0-47 8t-43 19q-21 14-32 28h-1z" />
<glyph unicode="&#xe634;" glyph-name="xuanyilingyicopy" d="M512 896q-100 0-191-38.5t-156-104-104-156.5-39-191q0-60 34-138 12 20 29 31 49 32 104 13t103.5-71.5 74.5-116.5q22-54 30-111.5t-1-102.5q68-36 116-36t116 36q-9 45-1 102.5t30 111.5q26 65 74.5 117.5t103.5 71 104-13.5q17-11 29-31 34 70 34 138 0 100-39 191t-104 156.5-156 104-191 38.5zM396 433q-32-50-81.5-69t-89.5 4q-40 24-45 77.5t27 105.5q32 50 81.5 69t89.5-4q39-26 44.5-78.5t-26.5-104.5zM512 50q-27 0-46.5 22.5t-27.5 58-11.5 64.5-3.5 55q0 41 25.5 65t63.5 24 63.5-24 25.5-65q0-26-3.5-55t-11.5-64.5-27.5-58-46.5-22.5zM799 371q-38-25-89-6t-82 70q-32 52-26.5 105t44.5 78q38 25 88.5 6t82.5-71 26.5-105.5-44.5-76.5zM902 244q-23 16-60-3t-71-59.5-52-84.5q-17-43-24-88.5t-3-77.5 16-43 53-15 80.5 3 44.5 23q5 15-0.5 74.5t0.5 112.5q3 31 10.5 62t12.5 46.5 4 29-11 20.5zM122 244q-10-7-11-20t4-28 12.5-47 10.5-63q6-54 0.5-113.5t-0.5-73.5q5-16 44.5-23t80.5-3 53 15 16 43-3 77.5-24 88.5q-18 43-52 83.5t-71 60-60 3.5z" />
<glyph unicode="&#xe635;" glyph-name="dashang" d="M512 128q158 0 271 113t113 271-113 271-271 113-271-113-113-271 113-271 271-113zM512 800q120 0 204-84t84-204-84-204-204-84-204 84-84 204 84 204 204 84zM752 48q0 19-14.5 33.5t-33.5 14.5h-592q-19 0-33.5-14.5t-14.5-33.5 14.5-33.5 33.5-14.5h592q19 0 33.5 14.5t14.5 33.5zM896-32h-592q-19 0-33.5-14.5t-14.5-33.5 14.5-33.5 33.5-14.5h592q19 0 33.5 14.5t14.5 33.5-14.5 33.5-33.5 14.5zM480 352v-38q0-13 13-13h38q13 0 13 13v38q45 7 70.5 32t25.5 67q0 23-8 39.5t-23 26.5-26.5 14.5-28.5 9.5q-4 1-17 4.5t-23.5 7-23 8.5-19.5 12.5-7 15.5q0 15 13 22t29 7q28 0 41-13 10-10 10-13 0-1 1.5-4.5t2.5-4.5 3-2.5 6-1.5h48q12 0 12 13 0 34-24.5 56.5t-61.5 29.5v36q0 12-13 12h-38q-13 0-13-12v-39q-41-8-67-31t-26-62q0-41 24-61t69-35q10-3 24.5-6t23-5.5 18-6 13.5-9.5 4-14q0-32-48-32-36 0-48 16-9 9-9 19 0 6-2.5 9t-5 3.5-8.5 0.5h-48q-13 0-13-13 2-36 30-61t69-35z" />
<glyph unicode="&#xe636;" glyph-name="dingyue" d="M640 896h-448q-26 0-45-19t-19-45v-896q0-26 19-45t45-19h640q26 0 45 19t19 45v704zM640 762l122-122h-122v122zM800-32h-576v832h352v-192q0-14 9.5-23t22.5-9h192v-608zM320 256h256v-64h-256v64zM320 640h128v-64h-128v64zM320 448h384v-64h-384v64z" />
<glyph unicode="&#xe637;" glyph-name="xuanhuanyanqingcopy" d="M981 591q32-80 32-175 0-97-38-186t-102-153.5-153-102.5-187-38q-110 0-203.5 31.5t-147.5 85.5-54 118q0 48 33.5 93t92.5 77q-78-31-123.5-75.5t-45.5-94.5q0-81 57.5-150t156-109 213.5-40q105 0 199.5 40.5t163 109 109 163 40.5 199.5q0 108-43 207zM341 589q-82-76-102-192 24 60 81 98t128 38q27 0 45.5-18t18.5-46q0-62-43.5-105.5t-105.5-43.5q-80 0-136-43.5t-56-105.5q0-42 31-77t86-58q-32 61-32 135v0q0-71 93.5-121t226.5-50q130 0 230 90-87-47-230-47-71 0-121 31t-50 75q0 43 49 75 43-11 79-11 116 0 197 71.5t81 174.5q0 31-7.5 55.5t-28 66-28.5 59.5q25 0 47 17 17 4 27 4 21 0 35.5-8t18.5-19v6q0 19-18.5 35.5t-47.5 24.5q2 0 2 4 0 18-31 30.5t-76 12.5q-28 0-50.5 16.5t-30.5 42.5q-4-17-4-27 0-51 44-75h-2q-30 0-49 19 10-32 47-47 16-34 21.5-69t-4.5-52q-14-18-36.5-19.5t-37.5 12.5q-52 43-57.5 109t37.5 117q20 24 17 55t-25 50q-27 17-51 17-159 0-295-74.5t-217-200.5q105 85 230 113-111-70-176-185t-65-250q0-54 9-96 25 133 115 237t217 149zM779 693q-16-9-35-6.5t-19 17.5q8 8 31 3t23-14z" />
<glyph unicode="&#xe638;" glyph-name="youxijingjicopy" d="M267 109q-54 119-54 339v43h43q51 0 83.5 8.5t72.5 33.5q-26 36-71 64-54 34-87.5 56.5t-68 51-53.5 53.5-31.5 57-15.5 68q-42-59-42-136 0-59 26-109.5t72-82.5q-89 29-135 111-6-29-6-58 0-73 41.5-131t107.5-80q-74 10-128 51 3-73 47.5-130.5t110.5-80.5q-66 6-117 38 21-68 76.5-114t128.5-52zM267 107q-18-68-61.5-124t-105.5-90q40-21 92-21 55 0 101.5 26t75.5 70q-65 56-102 139zM512 555q-82-66-130-86.5t-126-20.5q0-107 13.5-189t33.5-129.5 49.5-84.5 54.5-54 57-38.5 48-37.5q16 16 48 37.5t57 38.5 54.5 54 49.5 84.5 33.5 129.5 13.5 189q-78 0-126 20.5t-130 86.5zM640 213q0-52-37.5-90t-90.5-38-90.5 38-37.5 90v86q0 52 37.5 90t90.5 38q47 0 82.5-30.5t43.5-76.5h-66q-7 19-23 31t-37 12q-27 0-45.5-18.5t-18.5-45.5v-86q0-27 18.5-45.5t45.5-18.5 45.5 18.5 18.5 45.5h-64v64h128v-64zM757 107q-37-83-102-139 29-44 76-70t101-26q52 0 92 21-62 34-105.5 90t-61.5 124zM1003 448q-54-41-128-51 66 22 107.5 80t41.5 131q0 32-9 58-20-39-55.5-68t-78.5-43q46 32 72 82.5t26 109.5q0 77-42 136-2-36-14.5-68t-31-57-53-53.5-68-51-87.5-56.5q-45-28-71-64 40-25 72.5-33.5t83.5-8.5h43v-43q0-220-54-339 72 6 128 52.5t75 115.5q-55-32-117-38 67 21 111.5 78.5t48.5 130.5z" />
<glyph unicode="&#xe639;" glyph-name="icon_yuewenfengyunbang" d="M204 742q-20 0-35-14-15-15-15-36v-616q0-20 15-35t35-15h590l-209 358 209 358h-590zM51 692q0 63 45 108 19 19 50.5 32t57.5 13h769l-270-461 270-461h-769q-63 0-108 45t-45 108v616z" />
<glyph unicode="&#xe63a;" glyph-name="xannounce" d="M299 188l341-124v644l-341-128v-392zM243 653l427 158q6 2 13 2 17 0 29.5-12.5t12.5-30.5v-766q-1-16-13.5-28t-28.5-12q-7 0-13 2l-427 153q-11 4-20 15.5t-10 23.5v454q0 13 9 25t21 16zM265 653q14-3 24-15.5t10-26.5v-454q0-14-10-26.5t-24-15.5l-171-30q-4-1-9-1-17 0-29.5 12.5t-12.5 30.5v514q0 18 12.5 30.5t29.5 12.5q5 0 9-1zM128 589v-410l85 13v384zM811 384q0 18 12.5 30.5t29.5 12.5h86q17 0 29.5-12.5t12.5-30.5-12.5-30.5-29.5-12.5h-86q-17 0-29.5 12.5t-12.5 30.5zM815 597q-3 8-3 16 0 12 8.5 24t20.5 16l81 30q7 2 15 2 17 0 30-12.5t13-30.5q0-12-8.5-24t-20.5-16l-81-30q-7-3-15-3-12 0-24 8.5t-16 19.5zM977 115q-4-12-16-20t-24-8q-8 0-15 3l-81 29q-12 5-20.5 17t-8.5 24q0 18 13 30.5t30 12.5q8 0 15-2l81-30q11-5 19-16.5t8-23.5q0-11-5-20z" />
<glyph unicode="&#xe63b;" glyph-name="xshort-" d="M619 683h-576v85q0 53 37.5 90.5t90.5 37.5h497q-21-23-35-60.5t-14-67.5v-85zM939 768v-896l-81 70q-7 6-16 6t-16-6l-64-57q-7-7-16.5-7t-15.5 7l-64 57q-7 6-16 6t-16-6l-64-57q-7-7-16.5-7t-15.5 7l-64 57q-7 6-16 6t-16-6l-64-57q-7-7-16.5-7t-15.5 7l-64 57q-7 6-16 6t-16-6l-79-70v747h448q26 0 45 18.5t19 45.5v85q0 53 37.5 90.5t90.5 37.5 90.5-37.5 37.5-90.5zM256 480q0-13 9.5-22.5t22.5-9.5h277q14 0 23 9.5t9 22.5-9 22.5-23 9.5h-277q-13 0-22.5-9.5t-9.5-22.5zM853 181.5q0 13.5-9 22.5t-23 9h-533q-13 0-22.5-9t-9.5-22.5 9.5-23 22.5-9.5h533q14 0 23 9.5t9 23zM853 330.5q0 13.5-9 23t-23 9.5h-533q-13 0-22.5-9.5t-9.5-23 9.5-22.5 22.5-9h533q14 0 23 9t9 22.5z" />
<glyph unicode="&#xe63c;" glyph-name="suo" d="M832 512h-64v128q0 106-75 181t-181 75-181-75-75-181v-128h-64q-26 0-45-19t-19-45v-512q0-26 19-45t45-19h640q26 0 45 19t19 45v512q0 26-19 45t-45 19zM352 640q0 67 46.5 113.5t113.5 46.5 113.5-46.5 46.5-113.5v-128h-320v128zM800-32h-576v448h576v-448zM512 352q-41 0-68.5-27.5t-27.5-68.5q0-26 13-48.5t35-34.5v-93q0-19 14.5-33.5t33.5-14.5 33.5 14.5 14.5 33.5v93q22 12 35 34.5t13 48.5q0 41-27.5 68.5t-68.5 27.5z" />
<glyph unicode="&#xe63d;" glyph-name="taolun" d="M861 461q0 110-57.5 203t-157 146.5-217.5 53.5q-117 0-215.5-54.5t-156-147.5-57.5-201 58-202l-42-141q-7-26 5-37.5t37-3.5l134 45q103-64 234-64 119-2 219.5 52t158 147 57.5 204zM646.5 515q21.5 0 38-16.5t16.5-38-16.5-38-38-16.5-38 16.5-16.5 38 16.5 38 38 16.5zM214 406q-21 0-37.5 16.5t-16.5 38 16.5 38 38 16.5 38-16.5 16.5-37.5q0-22-15.5-38.5t-39.5-16.5zM378 461q0 21 16 37.5t38 16.5 38-16.5 16-38-16-38-38-16.5-38 15.5-16 39.5zM966 96q58 99 58 202 0 82-33 155t-92 129q19-57 19-124v-36q29-57 29-128 0-85-45-160l-19-28 10-36 16-54-51 16-36 13-32-19q-89-55-192-55-78 0-140 29h-20q-80 0-156 26 61-62 143.5-97t176.5-35q121 0 233 64l144-48q22-7 32.5 3.5t2.5 32.5z" />
<glyph unicode="&#xe63e;" glyph-name="tuijianpiao" d="M589 262l-77 154-77-154-166-22 121-118-28-170 150 80 150-80-28 170 121 118zM64 512h96v-640h-96v640zM224 576h128v-64h-128v64zM864 512h96v-640h-96v640zM896 896h-256q0-53-37.5-90.5t-90.5-37.5-90.5 37.5-37.5 90.5h-256q-26 0-45-19t-19-45v-256h96v224h150q27-58 81-93t121-35 121 35 81 93h150v-224h96v256q0 26-19 45t-45 19zM672 576h128v-64h-128v64zM448 576h128v-64h-128v64z" />
<glyph unicode="&#xe63f;" glyph-name="yuepiao" d="M224 576h128v-64h-128v64zM64 512h96v-640h-96v640zM256 320h512v-96h-512v96zM256 128h512v-96h-512v96zM864 512h96v-640h-96v640zM896 896h-256q0-53-37.5-90.5t-90.5-37.5-90.5 37.5-37.5 90.5h-256q-26 0-45-19t-19-45v-256h96v224h150q27-58 81-93t121-35 121 35 81 93h150v-224h96v256q0 26-19 45t-45 19zM448 576h128v-64h-128v64zM672 576h128v-64h-128v64z" />
<glyph unicode="&#xe640;" glyph-name="icon-safety" d="M942 772q-149 13-244.5 40t-185.5 84q-90-57-185.5-84t-245.5-40q-14 0-23-10t-9-24v-432q0-104 48-189t127-119l288-126 288 126q79 34 127.5 119t48.5 189v432q0 14-10 24t-24 10zM880 306q0-76-33.5-137t-84.5-83l-250-109-249 109q-52 22-85 83t-33 137v375q119 13 204.5 37t162.5 67q78-43 163.5-67t204.5-37v-375zM940 676v0zM278 396q44-52 105.5-81.5t130.5-29.5q67 0 127.5 28.5t103.5 78.5q15 17 1.5 34.5t-33.5 7.5q-197-97-402 3-19 10-33-7t0-34z" />
<glyph unicode="&#xe643;" glyph-name="add" d="M576 448v384q0 27-18.5 45.5t-45.5 18.5-45.5-18.5-18.5-45.5v-384h-384q-27 0-45.5-18.5t-18.5-45.5 18.5-45.5 45.5-18.5h384v-384q0-27 18.5-45.5t45.5-18.5 45.5 18.5 18.5 45.5v384h384q27 0 45.5 18.5t18.5 45.5-18.5 45.5-45.5 18.5h-384z" />
<glyph unicode="&#xe644;" glyph-name="xiazai" horiz-adv-x="1032" d="M965 296q-23 0-40.5-16t-17.5-42v-256h-805v256q0 23-16 40.5t-42 17.5q-44 0-44-58v-307q0-28 15.5-43.5t43.5-15.5h914q23 0 40.5 16t17.5 43v307q-6 24-23 41t-43 17zM475 128q17-16 37-16t37 16l329 307q27 28 14 61.5t-51 33.5h-146v307q0 27-14.5 43t-36.5 16h-264q-22 0-36.5-16t-14.5-43v-307h-146q-38 0-51-33.5t14-61.5zM439 472v314h146v-307q0-23 16-40.5t43-17.5h65l-197-183-190 183h66q22 0 36.5 14.5t14.5 36.5z" />
<glyph unicode="&#xe646;" glyph-name="anquan" d="M512 878q-16-5-69.5-25.5t-89-31.5-112.5-26-169-24v-396q0-80 25-152t66.5-126.5 99-99.5 119.5-75 130-49q68 19 130 49t119.5 75 99 99.5 66.5 126.5 25 152v396q-92 9-169 24t-112.5 26-89 31.5-69.5 25.5zM858 375q0-73-26.5-137t-64.5-106.5-88-77-89.5-52.5-77.5-29q-27 10-53 21t-62 30.5-66 41.5-61.5 54.5-53.5 69-36 84.5-14 101v315q34 3 65 8t59.5 12 48 11.5 45.5 13 37 12.5 36 13.5 30 10.5q6 7 25 7 2 0 10-3.5t15-3.5q5-1 30-10.5t36-13.5 37-12.5 45.5-13 48-11.5 59.5-12 65-8v-315zM261 438q0-26 18-44.5t44-18.5 44.5 18.5 18.5 44.5-18.5 44.5-44.5 18.5-44-18.5-18-44.5zM449 438q0-26 18.5-44.5t44.5-18.5 44.5 18.5 18.5 44.5-18.5 44.5-44.5 18.5-44.5-18.5-18.5-44.5zM638 438q0-26 18-44.5t44.5-18.5 44.5 18.5 18 44.5-18 44.5-44.5 18.5-44.5-18.5-18-44.5z" />
<glyph unicode="&#xe648;" glyph-name="yonghu" d="M713 339q51 83 51 185 0 127-73.5 217t-178 90-178-90-73.5-217q0-102 51-185-100-47-159.5-132t-59.5-186v-28q0-23 16.5-39.5t39.5-16.5h727q23 0 39.5 16.5t16.5 39.5v28q0 101-59.5 186t-159.5 132zM512.5 747q68.5 0 118-66t49.5-157-49.5-157.5-118-66.5-118 66.5-49.5 157.5 49.5 157 118 66zM177 21q0 82 52.5 149.5t138.5 102.5q65-57 144.5-57t144.5 57q86-35 138.5-102.5t52.5-149.5h-671z" />
<glyph unicode="&#xe64d;" glyph-name="bianjipinglun" horiz-adv-x="1031" d="M320 320q-82 0-137-55t-55-137q0-53-37.5-90.5t-90.5-37.5q0-53 55.5-90.5t136.5-37.5q134 0 227 75t93 181v0q0 82-55 137t-137 55zM563 205l429 473q34 38 32.5 92t-38.5 88q-38 34-92 32.5t-88-39.5l-435-473q69-15 121-61t71-112zM973-32h-410q-20 0-35.5-14t-15.5-37q0-45 51-45h416q21 0 36 14t15 37-15.5 34-41.5 11z" />
<glyph unicode="&#xe64e;" glyph-name="danyefan" horiz-adv-x="1366" d="M1280 896h-1195q-38 0-61.5-23.5t-23.5-61.5v-854q0-33 24-59t61-26h1195q38 0 61.5 23.5t23.5 61.5v854q0 33-24 59t-61 26zM725 768h512v-768h-512v768zM640 0h-512v768h512v-768zM213 640h342v-85h-342v85zM213 469h342v-85h-342v85zM213 299h214v-86h-214v86z" />
<glyph unicode="&#xe64f;" glyph-name="zishu" d="M896 320v320l-256 256h-448q-29 0-46.5-17.5t-17.5-46.5v-512h-128v-448h1024v448h-128zM192-64h-128v320h128v-320zM576 64h-128v-64h128v-64h-256v192h128v64h-128v64h256v-192zM608 800l192-192h-192v192zM960-64h-256v64h128v64h-128v64h128v64h-128v64h256v-320z" />
<glyph unicode="&#xe650;" glyph-name="zuozhe" d="M211 173q-23 33-29 74.5t5 94 51.5 116.5 107.5 131q12 9 38 31.5t38 32.5l148-141v224q93 48 207 88t180 56l67 16q-4-18-13-49.5t-39-120-64-166.5-89.5-168.5-114.5-148.5q-112-107-214-140.5t-176-6.5l-205-205q-19-19-45-19t-45 19-19 45 19 45l192 192z" />
<glyph unicode="&#xe651;" glyph-name="fanhuidingbu" horiz-adv-x="1363" d="M177 727q0 25 14 39t38 14h954q20 0 33-14.5t13-38.5q0-21-14.5-37t-38.5-16h-947q-24 5-38 19t-14 34zM690 418q5 5 13 5t13-5l414-415q15-15 36.5-15t36.5 15 15 36.5-15 36.5l-421 414q-35 35-82.5 35t-82.5-35l-414-414q-15-15-15-36.5t15-36.5 36-15 36 15z" />
<glyph unicode="&#xe652;" glyph-name="fanhuishuye" d="M640 896h-448q-29 0-46.5-17.5t-17.5-46.5v-896q0-29 17.5-46.5t46.5-17.5h640q29 0 46.5 17.5t17.5 46.5v224h-96v-192h-576v832h352v-160q0-29 17.5-46.5t46.5-17.5h160v-256h-282l96 96q15 14 15 35t-14.5 35.5-35.5 14.5-35-15l-179-179q-15-14-15-35t15-35l179-173q14-14 35-14t35.5 14 14.5 35-15 35l-96 96h378v410zM640 640v122l122-122h-122z" />
<glyph unicode="&#xe653;" glyph-name="gengxinshijian" d="M512 896q-138 0-256-69t-187-187-69-256 69-256 187-187 256-69 256 69 187 187 69 256-69 256-187 187-256 69zM512-32q-173 0-294.5 121.5t-121.5 294.5 121.5 294.5 294.5 121.5 294.5-121.5 121.5-294.5-121.5-294.5-294.5-121.5zM563 403v237q0 20-14 35.5t-37 15.5-37-15.5-14-35.5v-256q0-19 13-32l166-160q14-14 35-14t35.5 14 14.5 35-15 35z" />
<glyph unicode="&#xe654;" glyph-name="jiarushuji" d="M800 128v160h-96v-160h-160v-96h160v-160h96v160h160v96h-160zM544 800v-608h64v608h96v-448h96v480q0 29-17.5 46.5t-46.5 17.5h-640q-25 0-44.5-18t-19.5-46v-896q0-29 17.5-46.5t46.5-17.5h448v96h-416v832h96v-256l96 96 96-96v256h128z" />
<glyph unicode="&#xe655;" glyph-name="jianxiaokuandu" horiz-adv-x="1366" d="M1297 341h-384q-27 0-47.5-18.5t-20.5-49.5q0-30 21-45t56-15h384q26 0 42.5 18.5t16.5 50.5q0 59-68 59zM683 896h-598q-38 0-61.5-23.5t-23.5-61.5v-854q0-33 24-59t61-26h598q38 0 61.5 23.5t23.5 61.5v854q0 33-24 59t-61 26zM640 0h-512v768h512v-768zM213 640h342v-85h-342v85zM213 469h342v-85h-342v85zM213 299h214v-86h-214v86z" />
<glyph unicode="&#xe656;" glyph-name="jianxiaozihao" horiz-adv-x="1260" d="M450 857q-7 26-31 36.5t-47.5 0-31.5-36.5l-338-904q-6-23 3.5-45t27.5-34q23-6 45 3.5t34 27.5l110 283h354l102-275q6-23 30.5-33t48.5 2q23 6 33 30.5t-2 48.5zM261 306l134 362 134-362h-268zM1197 306h-354q-25 0-44-17t-19-45 19.5-42 51.5-14h354q24 0 39.5 17t15.5 46q0 55-63 55z" />
<glyph unicode="&#xe657;" glyph-name="jinggao" horiz-adv-x="1029" d="M1015 45l-435 742q-29 48-66.5 48t-61.5-48l-436-742q-27-48-8-78.5t72-30.5h864q57 0 76.5 33t-5.5 76zM516 704l396-672h-793zM464 480h96v-224h-96v224zM464 192h96v-96h-96v96z" />
<glyph unicode="&#xe658;" glyph-name="pinglun" horiz-adv-x="1031" d="M512 864q-138 0-256.5-65t-187-175.5-68.5-239.5q0-123 70-243l-38-128-13-51q-9-24 6-36.5t39-2.5l173 58q125-77 281-77 104 0 199 38.5t163.5 103 109 153 40.5 185.5-41.5 185.5-111.5 153-165.5 103-199.5 38.5zM512 0q-130 0-230 64l-39 26-45-13-57-19 19 64 13 38-26 32q-51 77-51 192 0 159 121.5 271.5t294.5 112.5 294.5-112.5 121.5-271.5-121.5-271.5-294.5-112.5zM192 384q0 26 19 45t45 19 45-19 19-45-19-45-45-19-45 19-19 45zM448 384q0 26 19 45t45 19 45-19 19-45-19-45-45-19-45 19-19 45zM704 384q0 26 19 45t45 19 45-19 19-45-19-45-45-19-45 19-19 45z" />
<glyph unicode="&#xe659;" glyph-name="shanchu" d="M973 736h-922q-23 0-37-12.5t-14-32.5q0-24 13.5-37.5t37.5-13.5h77v-704q0-29 17.5-46.5t46.5-17.5h640q25 0 44.5 18t19.5 46v704h77q24 0 37.5 13.5t13.5 37.5q0 20-14 32.5t-37 12.5zM800-32h-576v672h576v-672zM371 800h288q21 0 36 14t15 37-15.5 34-41.5 11h-282q-24 0-37.5-13.5t-13.5-37.5q0-45 51-45zM416 32q14 0 23 9t9 23v480q0 14-9 23t-23 9-23-9-9-23v-480q0-14 9-23t23-9zM608 32q14 0 23 9t9 23v480q0 14-9 23t-23 9-23-9-9-23v-480q0-14 9-23t23-9z" />
<glyph unicode="&#xe65a;" glyph-name="shangxiafanye" d="M914 896v-110h-804v110h-110v-146q0-33 20-53t53-20h878q29 0 51 20.5t22 52.5v146h-110zM951 603h-878q-32 0-52.5-22t-20.5-51v-658h110v622h804v-622h110v658q0 32-22 52.5t-51 20.5zM219 311h586v-73h-586v73zM219 91h586v-73h-586v73z" />
<glyph unicode="&#xe65b;" glyph-name="shezhi" horiz-adv-x="1027" d="M1005 282l-115 64v76l115 64q15 5 19 18t-6 27l-128 224q-5 10-17.5 14t-27.5-1l-115-64q-38 26-64 38v128q5 10-3 18t-22 8h-256q-15 0-23.5-9t-8.5-23v-128q-5-3-29-15t-35-23l-116 64q-9 9-21 5t-17-18l-128-224q-9-10-6.5-22t12.5-17l116-64v-76l-116-64q-10-6-12.5-18t6.5-27l128-224q5-10 17.5-14t27.5 1l115 64q38-26 64-38v-128q-5-10 3-18t23-8h256q14 0 23 9t9 23v128q4 3 28 15t36 23l115-64q27-13 45 13l128 224q5 10-0.5 22t-19.5 17zM839 122l-115 70q-54-62-147-83v-135h-128v135q-83 18-148 83l-115-70-64 108 115 71q-12 51-12 83t12 83l-115 71 64 108 115-70q61 70 148 90v134h128v-134q82-19 147-84l115 71 64-109-115-70q13-52 13-84t-13-83l115-70zM512.5 576q-81.5 0-136.5-55t-55-137 55-137 136.5-55 137 55 55.5 137-55.5 137-137 55zM512.5 256q-52.5 0-90 37.5t-37.5 90.5 37.5 90.5 90 37.5 90.5-37.5 38-90.5-38-90.5-90.5-37.5z" />
<glyph unicode="&#xe65c;" glyph-name="shouji" d="M832 896h-640q-25 0-44.5-18t-19.5-46v-896q0-29 17.5-46.5t46.5-17.5h640q25 0 44.5 18t19.5 46v896q0 29-17.5 46.5t-46.5 17.5zM512-64q-29 0-46.5 17.5t-17.5 46.5 17.5 46.5 46.5 17.5 46.5-17.5 17.5-46.5-17.5-46.5-46.5-17.5zM800 128h-576v640h576v-640z" />
<glyph unicode="&#xe65d;" glyph-name="toupiao" d="M64 512h96v-640h-96v640zM224 576h128v-64h-128v64zM448 576h128v-64h-128v64zM864 512h96v-640h-96v640zM672 576h128v-64h-128v64zM896 896h-256q0-53-37.5-90.5t-90.5-37.5-90.5 37.5-37.5 90.5h-256q-29 0-46.5-17.5t-17.5-46.5v-256h96v224h147q29-58 84-93t121-35 121 35 84 93h147v-224h96v256q0 29-17.5 46.5t-46.5 17.5zM640 179l-77-77v231q0 23-15.5 37t-35.5 14-35.5-14-15.5-37v-237l-77 83q-14 15-35 15t-35-15-11.5-35 17.5-35l160-160q14-15 35-15t35 15l160 160q15 14 15 35t-14.5 35.5-35.5 14.5-35-15z" />
<glyph unicode="&#xe65f;" glyph-name="zengdakuandu" horiz-adv-x="1366" d="M1297 341h-128v128q0 27-19 48t-49 21-45-20-15-49v-128h-128q-27 0-47.5-18.5t-20.5-49.5q0-30 21-45t56-15h128v-128q0-27 18.5-47.5t49.5-20.5q32 0 50 18t18 50v128h128q20 0 35.5 19t15.5 50q0 59-68 59zM683 896h-598q-38 0-61.5-23.5t-23.5-61.5v-854q0-33 24-59t61-26h598q38 0 61.5 23.5t23.5 61.5v854q0 33-24 59t-61 26zM640 768v-768h-512v768h512zM213 640h342v-85h-342v85zM213 469h342v-85h-342v85zM213 299h214v-86h-214v86z" />
<glyph unicode="&#xe660;" glyph-name="zengdazihao" horiz-adv-x="1260" d="M450 857q-7 26-31 36.5t-47.5 0-31.5-36.5l-338-904q-6-23 3.5-45t27.5-34q23-6 45 3.5t34 27.5l110 283h354l102-275q6-23 30.5-33t48.5 2q23 6 33 30.5t-2 48.5zM261 306l134 362 134-362h-268zM1197 306h-118v118q0 25-17.5 44t-45.5 19q-27 0-41-18t-14-45v-118h-118q-25 0-44-17t-19-45 19.5-42 51.5-14h118v-117q0-25 17.5-44t45.5-19q29 0 46 16.5t17 46.5v117h118q18 0 32.5 17.5t14.5 45.5q0 55-63 55z" />
<glyph unicode="&#xe663;" glyph-name="wenjiandocuments18" d="M186 58h326v-46h-326v46zM838 58v-46h93v884h-698v-93h46v46h605v-791h-46zM186 198h512v-47h-512v47zM93 747v-865q0-10 10-10h679q9 0 9 10v865q0 9-9 9h-679q-10 0-10-9zM140 710h605v-791h-605v791zM186 617h512v-47h-512v47zM186 477h512v-46h-512v46zM186 337h512v-46h-512v46z" />
<glyph unicode="&#xe664;" glyph-name="gou" d="M800 567l-413-413-163 163q-18 18-44 18t-44.5-18-18.5-44 19-44l195-196q20-20 56-18 36-2 56 18l445 445q19 19 19 44.5t-18.5 44-44.5 18.5-44-18z" />
<glyph unicode="&#xe665;" glyph-name="moon" d="M740 648q0-100-39-191.5t-105-157.5-157-104.5-191-38.5q-109 0-206 44 59-128 180-207t267-79q100 0 191.5 39t157 105 104.5 157 39 191q0 147-78.5 267.5t-207.5 179.5q45-97 45-205z" />
<glyph unicode="&#xe666;" glyph-name="look-lishi" d="M849 80q-79-79-187-111.5t-220-7.5q-10 2-15 10.5t-3 17.5 10.5 14.5 17.5 3.5q77-18 153.5-4.5t143 55.5 111 105.5 62 140 4 153-55.5 143-105.5 111.5-140.5 62-153.5 4-143-55-111-105.5-61.5-140.5q-23-100 5.5-197t101.5-169q7-7 7-16.5t-6-16.5h-1q-6-7-15.5-7t-16.5 7q-82 80-114 188.5t-7 220.5q20 86 70 157t124 118 159.5 62 171.5-5q116-26 202-105.5t121.5-191 8.5-227.5q-27-125-117-214v0zM677.5 191q-12.5 0-20.5 9l-145 145q-9 9-9 21v252q0 12 8.5 20.5t21 8.5 21-8.5 8.5-20.5v-240l136-136q9-9 9-21t-8.5-21-21-9zM262 77l-2-2q-9-7-19-4l-142 32q-10 2-15 10t-3 17.5 10.5 14.5 17.5 3l116-26 9 106q0 9 7.5 15.5t17 5.5 16-8 5.5-17l-11-133q0-8-7-14z" />
<glyph unicode="&#xe667;" glyph-name="shuaxin" d="M634 39q-4 8-0.5 16.5t11.5 11.5q96 40 153.5 126.5t57.5 190.5q0 93-46 172.5t-125.5 125.5-172.5 46-172.5-46-125.5-125.5-46-172.5q0-104 57.5-190t152.5-127q9-3 12-11.5t-0.5-16.5-11.5-11.5-16-0.5q-108 46-172.5 143t-64.5 214q0 105 52 194t141 141 194 52 194-52 141-141 52-194q0-117-64.5-214t-172.5-143q-8-3-16.5 0.5t-11.5 11.5v0zM619 19v236q0 9 6.5 15.5t15.5 6.5 15-6.5 6-15.5v-215h215q9 0 15.5-6t6.5-15-6.5-15.5-15.5-6.5h-236q-9 0-15.5 6.5t-6.5 15.5v0z" />
<glyph unicode="&#xe668;" glyph-name="putonghongbao" d="M853 256h-298v171h298q20 0 31.5 11.5t11.5 31-11.5 31-31.5 11.5h-281l269 269q12 13 12 30t-12.5 29.5-29.5 12.5-30-12l-269-269-269 269q-13 12-30 12t-29.5-12.5-12.5-29.5 12-30l269-269h-281q-20 0-31.5-11.5t-11.5-31 11.5-31 31.5-11.5h298v-171h-298q-20 0-31.5-11.5t-11.5-31 11.5-31 31.5-11.5h298v-214q0-19 12-30.5t31-11.5 31 11.5 12 30.5v214h298q20 0 31.5 11.5t11.5 31-11.5 31-31.5 11.5z" />
<glyph unicode="&#xe669;" glyph-name="tuijianpiaohongbao" d="M939 512h-171v256q0 19-11.5 31t-31.5 12h-149q-26 0-38-26l-137-273h-102q-20 0-31.5-11.5t-11.5-31.5v-469q0-19 11.5-31t31.5-12h512q27 0 42 30l128 470q4 22-8 38.5t-34 16.5zM777 43h-436v384h86q25 0 38 25l137 273h81v-256q0-19 11.5-30.5t30.5-11.5h158zM128 512q-19 0-31-11.5t-12-31.5v-469q0-19 12-31t31-12 31 12 12 31v469q0 20-12 31.5t-31 11.5z" />
<glyph unicode="&#xe66a;" glyph-name="yuepiaohongbao" d="M853 853h-682q-20 0-31.5-11.5t-11.5-30.5v-854q0-19 11.5-30.5t31-11.5 31 11.5 11.5 30.5v811h598v-811q0-19 11.5-30.5t31-11.5 31 11.5 11.5 30.5v854q0 19-11.5 30.5t-31.5 11.5zM683 555h-342q-19 0-30.5-12t-11.5-31 11.5-31 30.5-12h342q19 0 30.5 12t11.5 31-11.5 31-30.5 12zM683 256h-342q-19 0-30.5-11.5t-11.5-31 11.5-31 30.5-11.5h342q19 0 30.5 11.5t11.5 31-11.5 31-30.5 11.5z" />
<glyph unicode="&#xe66b;" glyph-name="huidaodingbu" d="M943 699h-862q-7 0-12-5t-5-12v-33q0-7 5-12t12-5h862q7 0 11.5 5t4.5 12v33q0 7-4.5 12t-11.5 5v0zM530 560q-8 7-18 3-10 4-18-3l-424-439q-11-12 0-23l24-23q11-12 23 0l395 409 395-409q11-12 23 0l23 23q12 11 0 23l-423 439z" />
<glyph unicode="&#xe677;" glyph-name="hudong" d="M822 504h-620q-12 0-17 12-5 11 4 19l204 205 26-26-174-173h577v-37zM630 23l-25 25 173 174h-576v36h620q12 0 17-11 4-11-4-20z" />
<glyph unicode="&#xe67e;" glyph-name="mimazhaohui" d="M902 659l-179 179q-48 48-114.5 48t-109.5-48q-48-48-48-114t48-110l58-57-455-455q-14-14-14-35t14-35l135-134q14-15 35-15t35.5 14.5 14.5 35.5-15 35l-102 102 115 116 58-58q14-14 35-14t35 14 14 35-14 35l-58 58 237 237 58-58q48-48 114.5-48t109.5 48q39 43 37.5 110t-44.5 114zM832 499q-19-19-44.5-19t-45.5 19l-179 179q-19 20-19 45.5t19 44.5 45 19 45-19l179-179q19-19 19-45t-19-45z" />
<glyph unicode="&#xe900;" glyph-name="禁止" d="M512 895.98c-282.762 0-512-229.221-512-511.98s229.238-511.98 512-511.98 512 229.223 512 511.98c0 282.76-229.238 511.98-512 511.98zM896 384c0-82.728-26.387-159.354-71.054-222.111l-535.061 535.046c62.753 44.666 139.39 71.046 222.114 71.046 211.741-0.001 384.001-172.261 384.001-383.987zM128 384c0 83.317 26.762 160.457 72.025 223.466l535.448-535.427c-62.997-45.254-140.153-72.016-223.474-72.016-211.74 0-384 172.26-384 383.985z" />
<glyph unicode="&#xe901;" glyph-name="评论" d="M921.245 756.322l-0.943-541.647-196.14 0.342c-13.684 0.024-26.812-2.607-39.346-7.912s-23.763-12.897-33.691-22.748l-139.366-138.881-140.023 139.368c-4.551 5.336-9.684 9.907-15.36 13.71-5.695 3.803-11.579 6.841-17.65 9.154-6.091 2.291-12.536 4.21-19.376 5.714-6.817 1.525-13.68 2.305-20.543 2.336l-196.12 0.343 0.943 541.647 817.613-1.423zM944.21 858.925l-863.163 1.503c-22.039 0.039-40.877-7.527-56.497-22.707-15.618-15.182-23.448-33.787-23.485-55.826l-1.026-589.501c-0.039-22.041 7.726-40.693 23.291-55.918s34.378-22.866 56.418-22.905l218.928-0.379 198.093-199.887c3.768-3.802 8.72-5.718 14.796-5.729 1.533-0.002 3.049 0.368 4.563 1.112l9.13 4.567 198.769 199.198 218.926-0.382c22.041-0.038 40.879 7.538 56.5 22.707 15.616 15.173 23.445 33.797 23.483 55.838l1.027 589.5c0.038 22.039-7.727 40.673-23.289 55.909-15.565 15.235-34.379 22.866-56.419 22.904h-0.042zM206.936 487.913c0.033 18.629 6.716 34.592 20.052 47.87 13.313 13.288 29.123 19.916 47.368 19.884 7.589-0.014 14.824-1.176 21.661-3.469 6.817-2.302 13.094-5.547 18.809-9.736 5.694-4.198 10.64-9.141 14.798-14.841 4.136-5.698 7.359-11.986 9.671-18.854 2.289-6.856 3.416-14.094 3.383-21.683-0.049-28.114-13-48.235-38.898-60.349-9.13-4.557-19.025-6.831-29.682-6.812-18.225 0.032-34.013 6.715-47.279 20.039-13.29 13.333-19.919 29.32-19.886 47.949v0zM444.107 486.909c0.023 12.919 3.091 24.512 9.205 34.766 6.072 10.253 14.277 18.417 24.55 24.474 10.273 6.068 21.681 9.086 34.247 9.063 12.544-0.021 23.944-3.078 34.195-9.181 10.273-6.103 18.429-14.287 24.486-24.56 6.057-10.275 9.086-21.868 9.063-34.796-0.032-18.247-6.715-34.002-20.048-47.289-13.335-13.278-29.311-19.906-47.931-19.873-18.64 0.032-34.592 6.715-47.878 20.039-13.291 13.332-19.918 29.123-19.887 47.357v0zM683.584 487.085c0.032 18.628 6.715 34.592 20.049 47.87 13.332 13.288 29.123 19.915 47.368 19.883 12.896-0.022 24.503-3.090 34.756-9.194 10.254-6.093 18.407-14.286 24.465-24.56 6.078-10.273 9.085-21.868 9.062-34.786-0.032-18.247-6.716-34.003-20.029-47.29-13.333-13.277-29.31-19.906-47.951-19.873-18.64 0.022-34.593 6.706-47.882 20.040-13.286 13.335-19.895 29.31-19.863 47.94l0.021-0.032z" />
<glyph unicode="&#xe902;" glyph-name="信封-(1)" d="M899.412 707.756h-776.634c-32.407 0-58.776-26.374-58.776-58.782v-573.186c0-32.421 26.369-58.795 58.776-58.795h776.633c32.414 0 58.782 26.374 58.782 58.795v573.186c0.001 32.408-26.367 58.782-58.781 58.782zM511.104 397.427l-253.928 220.592h508.169l-254.24-220.592zM153.746 584.988l328.174-278.957c15.74-13.388 42.615-13.388 58.355 0l328.169 278.957v-478.258h-714.699v478.258z" />
<glyph unicode="&#xe903;" glyph-name="编辑-(1)" horiz-adv-x="1026" d="M876.992 432.18c-16.346 0-29.256-12.91-29.256-29.256v-339.026c0-28.397-23.235-52.489-52.489-52.489h-603.174c-28.397 0-52.489 23.235-52.489 52.489v603.174c0 28.397 23.235 52.489 52.489 52.489h364.83c16.346 0 29.256 12.91 29.256 29.256s-12.91 29.256-29.256 29.256h-364.83c-61.090 0-110.132-49.039-110.132-110.132v-603.174c0-61.090 49.039-110.132 110.132-110.132h603.174c61.090 0 110.132 49.039 110.132 110.132v339.026c0.859 15.487-12.051 28.397-28.397 28.397zM930.346 801.322c-17.206 17.206-44.744 17.206-61.090 0l-405.271-405.271-22.372-68.842c-3.436-9.472 6.018-18.065 15.487-15.487l68.842 22.372 405.271 405.271c16.346 17.206 16.346 44.744-0.859 61.949z" />
<glyph unicode="&#xe904;" glyph-name="二次元" d="M733.867 426.667c-42.667-68.267-119.467-106.667-209.067-119.467 4.267-25.6 0-64 21.333-102.4 42.667-81.067 76.8-170.667 89.6-234.667 72.533-29.867 221.867 42.667 264.533 136.533 46.933 102.4 0 204.8-76.8 213.333s-119.467-34.133-110.933-81.067c8.533-46.933 51.2-46.933 98.133-17.067s89.6-34.133 38.4-59.733-128-46.933-170.667 4.267c-46.933 51.2-42.667 234.667 145.067 217.6s179.2-268.8 119.467-349.867c-59.733-93.867-132.267-162.133-345.6-162.133h-341.333c-85.333 0-25.6 179.2 51.2 328.533 21.333 42.667 17.067 76.8 21.333 102.4-93.867 12.8-170.667 51.2-209.067 119.467h-55.467c-12.8 4.267-21.333 12.8-21.333 25.6s8.533 21.333 21.333 21.333h34.133c-4.267 12.8-8.533 25.6-8.533 42.667h-68.267c-12.8 0-21.333 8.533-21.333 21.333s8.533 21.333 21.333 21.333h64c0 0 0 0 0 0 0 59.733 17.067 106.667 42.667 140.8v170.667c0 21.333 17.067 34.133 38.4 25.6l192-85.333c25.6 4.267 46.933 4.267 68.267 4.267s42.667 0 64-4.267l192 85.333c21.333 8.533 38.4 0 38.4-25.6v-170.667c25.6-38.4 42.667-85.333 42.667-140.8 0 0 0 0 0 0h64c17.067 0 25.6-8.533 25.6-21.333s-8.533-21.333-21.333-21.333h-68.267c-4.267-17.067-4.267-29.867-8.533-42.667h34.133c12.8 0 21.333-8.533 21.333-21.333s-8.533-21.333-21.333-21.333h-55.467z" />
<glyph unicode="&#xe905;" glyph-name="count" horiz-adv-x="768" d="M512 810.656h-426.656v-853.344h426.656v853.344zM597.344 810.656v-853.344h85.344v853.344h-85.344zM42.656 896h682.656c23.552 0 42.656-19.104 42.656-42.656v-938.656c0-23.552-19.104-42.656-42.656-42.656h-682.656c-23.552 0-42.656 19.104-42.656 42.656v938.656c0 23.552 19.104 42.656 42.656 42.656z" />
<glyph unicode="&#xe906;" glyph-name="words" horiz-adv-x="992" d="M255.744-34.912c14.848 33.28 23.52 73.312 23.52 116.352v46.176c0 13.056 10.4 23.648 23.232 23.648h651.712c12.832 0 23.232-10.304 23.232-23.648v-46.176c0-115.776-62.976-209.44-139.296-209.44h-698.88c-76.928 0-139.296 62.528-139.296 139.712v837.632c0 25.76 20.704 46.656 46.24 46.656h745.344c25.536 0 46.24-20.448 46.24-46.656v-697.12h-93.088v650.72h-651.648v-791.2c0-25.824 20.736-46.624 46.208-46.624h116.48zM186.176 337.44h186.176c25.696 0 46.56-20.832 46.56-46.56s-20.832-46.56-46.56-46.56h-186.176c-25.696 0-46.56 20.832-46.56 46.56s20.832 46.56 46.56 46.56zM186.176 523.648h465.44c25.696 0 46.56-20.832 46.56-46.56s-20.832-46.56-46.56-46.56h-465.44c-25.696 0-46.56 20.832-46.56 46.56s20.832 46.56 46.56 46.56zM186.176 709.824h372.352c25.696 0 46.56-20.832 46.56-46.56s-20.832-46.56-46.56-46.56h-372.352c-25.696 0-46.56 20.832-46.56 46.56s20.832 46.56 46.56 46.56zM838.176-34.912c3.072 0 10.848 4.96 20.832 19.904 12.32 18.464 21.056 44.16 24.16 73.216h-511.424c-1.856-32.448-7.52-63.808-16.608-93.088h483.072z" />
</font>
</defs>
</svg>
